<svg xmlns="http://www.w3.org/2000/svg" xmlns:xlink="http://www.w3.org/1999/xlink" version="1.1" x="0px" y="0px" viewBox="0 0 1024 1280" style="enable-background:new 0 0 1024 1024;" xml:space="preserve"><g><g><g><path d="M792.9,429.7c-8.9,0-17.8,0-26.7,0c-23.4,0-46.7,0-70.1,0c-32.5,0-65,0-97.4,0c-36.5,0-73.1,0-109.6,0     c-35.6,0-71.3,0-106.9,0c-29.3,0-58.5,0-87.8,0c-17.9,0-35.8,0-53.7,0c-3.1,0-6.2,0.1-9.3,0c-5.8-0.1-11-2.7-13.9-6.9     c-2.7-3.8-3.6-7.5-3.3-12c0-0.4,0.8-3.7,1.1-4.5c0.6-1.3,1.6-2.5,2.2-3.8c0.7-1.5-0.3,0.3-0.4,0.4c7.2-9.2,15-18,22.5-27     c17.9-21.5,35.9-42.9,53.8-64.4c23.1-27.6,46.1-55.2,69.2-82.9c22.6-27,45.2-54.1,67.8-81.1c16.8-20.1,33.6-40.2,50.4-60.3     c4.5-5.4,9.1-10.9,13.6-16.3c4-4.8,7.7-9.8,14.1-11.2c6.7-1.5,13,1.4,17.8,7.2c0.8,0.9,1.5,1.8,2.3,2.8     c4.1,4.9,8.2,9.9,12.4,14.8c16.2,19.4,32.4,38.8,48.6,58.2c22.4,26.8,44.7,53.6,67.1,80.3c23.2,27.8,46.4,55.6,69.6,83.4     c18.4,22.1,36.9,44.2,55.3,66.2c8.4,10,17,19.9,25.2,30.1c0.1,0.1,0.1,0.2,0.2,0.2c-1.6-2.1,0.4,0.8,0.9,1.7     c2,3.5,2.4,7.8,1.8,10.8C808,423.8,801.7,429.5,792.9,429.7c-12.9,0.3-12.9,20.3,0,20c27.7-0.6,46.5-31,32-55.6     c-2.4-4-5.8-7.7-8.8-11.2c-13.2-15.8-26.4-31.6-39.5-47.3c-21.5-25.7-42.9-51.4-64.4-77.1c-24-28.7-47.9-57.4-71.9-86.1     c-20.7-24.8-41.4-49.6-62.2-74.4c-11.7-14-23.4-28-35.1-42c-7.2-8.6-15.7-14.9-27.3-16.2c-13.7-1.5-25.4,5-33.9,15.2     c-11,13.2-22,26.4-33,39.6c-20.4,24.4-40.7,48.8-61.1,73.1c-23.9,28.7-47.9,57.3-71.8,86c-21.8,26.1-43.5,52.1-65.3,78.2     c-13.8,16.5-27.6,33.1-41.4,49.6c-2.1,2.5-4.3,5-6.4,7.6c-7.7,9.6-10.9,22.1-7.3,34.1c3.7,12.3,13.6,22.4,26.1,25.5     c10.7,2.7,23.4,1.2,34.3,1.2c23.4,0,46.9,0,70.3,0c33.2,0,66.3,0,99.5,0c37.4,0,74.8,0,112.2,0c36.1,0,72.3,0,108.4,0     c29.4,0,58.8,0,88.2,0c17.2,0,34.3,0,51.5,0c2.3,0,4.6,0,6.9,0C805.7,449.7,805.8,429.7,792.9,429.7z"/></g></g><g><g><path d="M792.9,574.3c-9.3,0-18.5,0-27.8,0c-24.2,0-48.3,0-72.5,0c-33.5,0-67.1,0-100.6,0c-37.5,0-74.9,0-112.4,0     c-35.9,0-71.8,0-107.7,0c-28.8,0-57.7,0-86.5,0c-16.3,0-32.6,0-48.9,0c-5.8,0-11.5,0-17.1,1.9c-24.7,8.5-32.7,38.9-16.5,59     c7.7,9.6,15.8,18.9,23.6,28.3c18.6,22.3,37.2,44.6,55.9,66.9c23.6,28.3,47.2,56.5,70.8,84.8c22.8,27.3,45.6,54.6,68.4,82     c16.3,19.5,32.5,38.9,48.8,58.4c3.9,4.6,7.8,9.3,11.6,13.9c9.4,11.3,22.7,17.2,37.6,14.4c16.4-3.1,26.9-19.9,37-32     c17.1-20.4,34.1-40.9,51.2-61.3c23.1-27.7,46.2-55.4,69.4-83c23.4-28,46.8-56,70.2-84c17.9-21.4,35.8-42.9,53.7-64.3     c5.1-6.1,10.2-12.2,15.2-18.2c3.4-4.1,7.3-8.2,9.7-13.1C838.1,603.2,819.8,574.9,792.9,574.3c-12.9-0.3-12.9,19.7,0,20     c9,0.2,15.8,6.2,17,15.3c-0.1-1.1,0,1.5,0,1.8c0,1.5-0.1,2-0.2,2.5c-0.5,3.1-1.4,4.4-2.8,7c-1.4,2.5,0.7-0.8-0.2,0.4     c-2.7,3.3-5.4,6.4-8.1,9.7c-14.3,17.1-28.6,34.3-42.9,51.4c-21.5,25.8-43.1,51.6-64.6,77.3c-23.4,28-46.8,56-70.2,84.1     c-20,23.9-39.9,47.8-59.9,71.7c-10.9,13.1-21.8,26.1-32.7,39.2c-5.9,7-12.7,12.1-21.7,9.1c-5.4-1.8-8.9-6.7-12.6-11     c-12.1-14.5-24.2-29-36.3-43.5c-20.5-24.5-40.9-49-61.4-73.5c-23.5-28.1-46.9-56.2-70.4-84.3c-21.1-25.3-42.3-50.6-63.4-75.9     c-13.2-15.8-26.4-31.6-39.6-47.4c-2-2.4-4-4.7-6-7.1c1.9,2.4-1.5-2.8-1.7-3.1c-1.3-3-1.2-4.2-1.2-7c0-3.1,1.7-7.7,3.4-9.9     c3.6-4.6,8.2-6.6,13.9-6.7c10.5-0.2,21.1,0,31.6,0c24.5,0,49,0,73.5,0c33.1,0,66.2,0,99.3,0c36.7,0,73.3,0,110,0     c35.2,0,70.5,0,105.7,0c28.4,0,56.7,0,85.1,0c16.5,0,33,0,49.5,0c2.2,0,4.4,0,6.6,0C805.7,594.3,805.8,574.3,792.9,574.3z"/></g></g></g><text x="0" y="1039" fill="#000000" font-size="5px" font-weight="bold" font-family="'Helvetica Neue', Helvetica, Arial-Unicode, Arial, Sans-serif">Created by shashank singh</text><text x="0" y="1044" fill="#000000" font-size="5px" font-weight="bold" font-family="'Helvetica Neue', Helvetica, Arial-Unicode, Arial, Sans-serif">from the Noun Project</text></svg>